<svg width="2204" height="617" viewBox="0 0 2204 617" fill="none" xmlns="http://www.w3.org/2000/svg">
<path fill-rule="evenodd" clip-rule="evenodd" d="M480.49 391.803C480.828 386.586 481 381.324 481 376.022C481 243.197 373.324 135.522 240.5 135.522C107.676 135.522 0 243.197 0 376.022C0 508.846 107.676 616.522 240.5 616.522C299.792 616.522 354.072 595.066 396 559.495V584.522C396 602.195 410.327 616.522 428 616.522H449C466.673 616.522 481 602.195 481 584.522V397.522C481 395.57 480.825 393.659 480.49 391.803ZM240.5 534.444C153.006 534.444 82.0778 463.516 82.0778 376.022C82.0778 288.528 153.006 217.6 240.5 217.6C327.994 217.6 398.922 288.528 398.922 376.022C398.922 463.516 327.994 534.444 240.5 534.444Z" fill="white"/>
<circle cx="240.5" cy="375.022" r="89.5" fill="url(#paint0_linear_42_725)"/>
<path fill-rule="evenodd" clip-rule="evenodd" d="M546.215 586.964C546.215 603.288 559.431 616.522 575.735 616.522H601.644C617.947 616.522 631.163 603.288 631.163 586.964V344.614C631.163 316.252 637.319 291.897 649.63 271.55C662.557 250.587 679.178 234.556 699.491 223.458C720.421 212.359 742.581 206.81 765.973 206.81C789.364 206.81 811.217 212.359 831.531 223.458C852.46 234.556 869.081 250.587 881.392 271.55C894.319 291.897 900.782 316.252 900.782 344.614V586.964C900.782 603.288 913.999 616.522 930.302 616.522H956.211C972.514 616.522 985.731 603.288 985.731 586.964V343.689C985.731 301.762 976.189 265.076 957.107 233.631C938.64 202.186 912.786 177.831 879.545 160.567C846.92 142.687 809.063 133.746 765.973 133.746C723.499 133.746 685.641 142.687 652.4 160.567C644.907 164.459 637.774 168.711 631 173.323V165.979C631 148.305 616.673 133.979 599 133.979L578 133.979C560.327 133.979 546 148.305 546 165.979L546 352.979C546 354.24 546.073 355.484 546.215 356.707V586.964Z" fill="white"/>
<path d="M1297.29 616.522C1263.24 616.522 1231.15 610.936 1201.03 599.764C1171.56 588.592 1145.36 572.492 1122.44 551.462C1100.17 530.433 1082.49 505.461 1069.39 476.546C1056.95 446.973 1050.73 413.458 1050.73 375.999C1050.73 338.541 1056.95 305.354 1069.39 276.439C1082.49 246.866 1100.17 221.565 1122.44 200.536C1144.71 179.507 1170.57 163.406 1200.04 152.234C1230.17 141.063 1261.93 135.477 1295.33 135.477C1317.6 135.477 1339.53 139.091 1361.14 146.32C1382.76 152.892 1401.75 161.763 1418.12 172.935C1435.15 183.45 1447.26 194.622 1454.47 206.451C1461.01 214.994 1465.6 222.223 1468.22 228.137C1471.49 233.394 1471.82 239.638 1469.2 246.866C1466.58 252.124 1462.98 257.052 1458.39 261.653C1453.81 265.596 1449.23 268.881 1444.64 271.51C1432.85 280.71 1421.07 282.025 1409.28 275.453C1402.08 268.224 1393.89 261.653 1384.72 255.738C1376.21 249.166 1367.04 243.252 1357.22 237.995C1347.39 232.737 1337.24 228.794 1326.76 226.166C1316.94 222.88 1306.46 221.237 1295.33 221.237C1264.55 221.237 1237.37 227.808 1213.8 240.952C1190.22 253.438 1171.88 271.51 1158.79 295.168C1146.34 318.169 1140.12 345.113 1140.12 375.999C1140.12 406.886 1146.34 433.83 1158.79 456.831C1171.88 479.831 1189.89 497.903 1212.81 511.047C1236.39 524.19 1263.24 530.762 1293.36 530.762C1307.12 530.762 1320.21 529.119 1332.66 525.833C1345.76 521.89 1357.87 516.961 1369 511.047C1380.14 504.475 1389.3 497.575 1396.51 490.346C1403.06 485.746 1408.62 481.803 1413.21 478.517C1417.79 475.231 1423.36 473.588 1429.91 473.588C1435.15 473.588 1440.71 475.888 1446.61 480.489C1452.5 484.432 1458.72 490.675 1465.27 499.218C1470.51 505.132 1473.46 511.375 1474.11 517.947C1475.42 524.519 1474.44 530.762 1471.17 536.676C1467.89 542.591 1462.65 548.505 1455.45 554.42C1444.97 564.934 1430.89 575.12 1413.21 584.978C1396.18 594.178 1377.52 601.736 1357.22 607.65C1336.91 613.565 1316.94 616.522 1297.29 616.522Z" fill="white"/>
<path d="M1822.69 532.519C1834.4 541.754 1840.56 550.682 1841.17 559.302C1842.41 567.922 1838.09 578.081 1828.23 589.779C1820.84 598.399 1814.06 603.941 1807.9 606.404C1802.35 609.482 1796.5 609.79 1790.34 607.327C1784.17 605.48 1777.09 601.17 1769.08 594.397L1630.64 431.81L1631.3 574.962C1631.3 583.582 1630.07 590.97 1627.6 597.127C1625.75 603.284 1622.05 607.902 1616.51 610.981C1610.96 614.675 1602.03 616.522 1589.7 616.522C1578.61 616.522 1560.36 614.675 1554.2 610.981C1548.03 607.902 1544.03 603.284 1542.18 597.127C1540.95 590.354 1540.33 582.658 1540.33 574.038L1539.67 41.5602C1539.67 32.9403 1540.6 25.5518 1542.45 19.3947C1544.29 13.2377 1548.3 8.61988 1554.46 5.54135C1560.62 1.84712 1578.88 0 1589.97 0C1602.29 0 1611.23 1.84712 1616.78 5.54135C1622.32 8.61988 1626.02 13.5455 1627.87 20.3183C1629.72 26.4754 1630.64 33.8639 1630.64 42.4838L1630.64 327.447L1759.15 192.663C1765.92 185.891 1772.39 181.273 1778.56 178.81C1785.33 175.731 1791.8 175.116 1797.97 176.963C1804.74 178.81 1811.52 183.736 1818.3 191.74C1829.39 204.054 1834.63 214.521 1834.01 223.141C1834.01 231.145 1828.47 240.381 1817.38 250.848C1806.29 261.315 1691.64 381.014 1691.64 381.014L1822.69 532.519Z" fill="white"/>
<path d="M1948.2 616.522C1935.88 616.522 1926.48 614.562 1920 610.644C1914.16 607.378 1910.27 602.479 1908.32 595.948C1907.03 588.763 1906.38 580.599 1906.38 571.454V185.443C1906.38 175.646 1907.35 167.481 1909.3 160.95C1911.24 154.418 1915.13 149.846 1920.97 147.234C1926.8 143.968 1936.21 142.335 1949.17 142.335C1960.85 142.335 1969.6 143.968 1975.44 147.234C1981.92 149.846 1986.13 154.092 1988.08 159.97C1990.67 165.195 1990.38 171.292 1990.38 178.477L1991.38 184.977C1995.92 176.486 1997.88 174.977 2003.38 169.477C2008.88 163.977 2016.88 158.97 2028.99 152.97C2042.38 147.477 2047.38 144.977 2061.03 141.335C2074.64 136.763 2086.18 135.477 2105.63 135.477C2115.36 135.477 2129.44 136.457 2137.86 138.416C2146.94 139.722 2155.37 142.008 2163.15 145.274C2171.58 148.54 2178.72 152.459 2184.55 157.031C2190.39 160.95 2194.93 165.522 2198.17 170.747C2202.06 175.319 2204 180.871 2204 187.402C2204 201.772 2199.46 214.181 2190.39 224.632C2181.31 234.429 2171.91 239.328 2162.18 239.328C2153.75 239.328 2147.59 238.348 2143.7 236.388C2139.81 233.776 2135.92 231.163 2132.03 228.551C2128.79 225.938 2123.92 223.652 2117.44 221.693C2110.96 219.08 2100.58 217.774 2086.32 217.774C2076.59 217.774 2066.21 219.733 2055.19 223.652C2044.82 227.571 2034.77 233.449 2025.04 241.287C2015.31 248.472 2007.21 257.942 2000.72 269.699C1994.89 281.456 1991.97 295.172 1991.97 310.848V573.414C1991.97 582.558 1991 590.396 1989.05 596.927C1987.11 603.459 1982.89 608.358 1976.41 611.623C1970.57 614.889 1961.17 616.522 1948.2 616.522Z" fill="white"/>
<path d="M1991.38 340.977C1991.38 366.106 1971.01 386.477 1945.88 386.477H1938.38C1920.71 386.477 1906.38 372.15 1906.38 354.477L1906.38 167.477C1906.38 149.804 1920.71 135.477 1938.38 135.477L1959.38 135.477C1977.05 135.477 1991.38 149.804 1991.38 167.477L1991.38 340.977Z" fill="white"/>
<defs>
<linearGradient id="paint0_linear_42_725" x1="240.5" y1="285.522" x2="240.5" y2="464.522" gradientUnits="userSpaceOnUse">
<stop stop-color="#8565FE"/>
<stop offset="1" stop-color="#9E84FF"/>
</linearGradient>
</defs>
</svg>
