<svg width="2204" height="618" viewBox="0 0 2204 618" fill="none" xmlns="http://www.w3.org/2000/svg">
<path fill-rule="evenodd" clip-rule="evenodd" d="M480.49 392.325C480.828 387.108 481 381.846 481 376.544C481 243.719 373.324 136.044 240.5 136.044C107.676 136.044 0 243.719 0 376.544C0 509.368 107.676 617.044 240.5 617.044C299.792 617.044 354.072 595.588 396 560.017V585.044C396 602.717 410.327 617.044 428 617.044H449C466.673 617.044 481 602.717 481 585.044V398.044C481 396.092 480.825 394.181 480.49 392.325ZM240.5 534.966C153.006 534.966 82.0778 464.038 82.0778 376.544C82.0778 289.05 153.006 218.122 240.5 218.122C327.994 218.122 398.922 289.05 398.922 376.544C398.922 464.038 327.994 534.966 240.5 534.966Z" fill="#111223"/>
<circle cx="240.5" cy="375.544" r="89.5" fill="url(#paint0_linear_3_1313)"/>
<path fill-rule="evenodd" clip-rule="evenodd" d="M546.215 587.486C546.215 603.81 559.431 617.044 575.735 617.044H601.644C617.947 617.044 631.163 603.81 631.163 587.486V345.136C631.163 316.773 637.319 292.419 649.63 272.072C662.557 251.109 679.178 235.078 699.491 223.979C720.421 212.881 742.581 207.332 765.973 207.332C789.364 207.332 811.217 212.881 831.531 223.979C852.46 235.078 869.081 251.109 881.392 272.072C894.319 292.419 900.782 316.773 900.782 345.136V587.486C900.782 603.81 913.999 617.044 930.302 617.044H956.211C972.514 617.044 985.731 603.81 985.731 587.486V344.211C985.731 302.284 976.189 265.598 957.107 234.153C938.64 202.708 912.786 178.353 879.545 161.089C846.92 143.209 809.063 134.268 765.973 134.268C723.499 134.268 685.641 143.209 652.4 161.089C644.907 164.981 637.774 169.233 631 173.845V166.5C631 148.827 616.673 134.5 599 134.5L578 134.5C560.327 134.5 546 148.827 546 166.5L546 353.5C546 354.761 546.073 356.005 546.215 357.228V587.486Z" fill="#111223"/>
<path d="M1297.29 617.044C1263.24 617.044 1231.15 611.458 1201.03 600.286C1171.56 589.114 1145.36 573.014 1122.44 551.984C1100.17 530.955 1082.49 505.983 1069.39 477.067C1056.95 447.495 1050.73 413.98 1050.73 376.521C1050.73 339.063 1056.95 305.876 1069.39 276.961C1082.49 247.388 1100.17 222.087 1122.44 201.058C1144.71 180.029 1170.57 163.928 1200.04 152.756C1230.17 141.585 1261.93 135.999 1295.33 135.999C1317.6 135.999 1339.53 139.613 1361.14 146.842C1382.76 153.414 1401.75 162.285 1418.12 173.457C1435.15 183.972 1447.26 195.144 1454.47 206.973C1461.01 215.516 1465.6 222.744 1468.22 228.659C1471.49 233.916 1471.82 240.159 1469.2 247.388C1466.58 252.646 1462.98 257.574 1458.39 262.174C1453.81 266.117 1449.23 269.403 1444.64 272.032C1432.85 281.232 1421.07 282.547 1409.28 275.975C1402.08 268.746 1393.89 262.174 1384.72 256.26C1376.21 249.688 1367.04 243.774 1357.22 238.516C1347.39 233.259 1337.24 229.316 1326.76 226.687C1316.94 223.402 1306.46 221.759 1295.33 221.759C1264.55 221.759 1237.37 228.33 1213.8 241.474C1190.22 253.96 1171.88 272.032 1158.79 295.69C1146.34 318.691 1140.12 345.634 1140.12 376.521C1140.12 407.408 1146.34 434.352 1158.79 457.353C1171.88 480.353 1189.89 498.425 1212.81 511.569C1236.39 524.712 1263.24 531.284 1293.36 531.284C1307.12 531.284 1320.21 529.641 1332.66 526.355C1345.76 522.412 1357.87 517.483 1369 511.569C1380.14 504.997 1389.3 498.097 1396.51 490.868C1403.06 486.268 1408.62 482.325 1413.21 479.039C1417.79 475.753 1423.36 474.11 1429.91 474.11C1435.15 474.11 1440.71 476.41 1446.61 481.01C1452.5 484.953 1458.72 491.196 1465.27 499.74C1470.51 505.654 1473.46 511.897 1474.11 518.469C1475.42 525.041 1474.44 531.284 1471.17 537.198C1467.89 543.113 1462.65 549.027 1455.45 554.942C1444.97 565.456 1430.89 575.642 1413.21 585.5C1396.18 594.7 1377.52 602.257 1357.22 608.172C1336.91 614.086 1316.94 617.044 1297.29 617.044Z" fill="#111223"/>
<path d="M1822.69 533.041C1834.4 542.276 1840.56 551.204 1841.17 559.824C1842.41 568.444 1838.09 578.603 1828.23 590.301C1820.84 598.921 1814.06 604.463 1807.9 606.925C1802.35 610.004 1796.5 610.312 1790.34 607.849C1784.17 606.002 1777.09 601.692 1769.08 594.919L1630.64 432.332L1631.3 575.484C1631.3 584.103 1630.07 591.492 1627.6 597.649C1625.75 603.806 1622.05 608.424 1616.51 611.502C1610.96 615.197 1602.03 617.044 1589.7 617.044C1578.61 617.044 1560.36 615.197 1554.2 611.502C1548.03 608.424 1544.03 603.806 1542.18 597.649C1540.95 590.876 1540.33 583.18 1540.33 574.56L1539.67 42.082C1539.67 33.4621 1540.6 26.0737 1542.45 19.9166C1544.29 13.7595 1548.3 9.14173 1554.46 6.0632C1560.62 2.36897 1578.88 0.521851 1589.97 0.521851C1602.29 0.521851 1611.23 2.36897 1616.78 6.0632C1622.32 9.14173 1626.02 14.0674 1627.87 20.8401C1629.72 26.9972 1630.64 34.3857 1630.64 43.0056L1630.64 327.969L1759.15 193.185C1765.92 186.413 1772.39 181.795 1778.56 179.332C1785.33 176.253 1791.8 175.638 1797.97 177.485C1804.74 179.332 1811.52 184.258 1818.3 192.262C1829.39 204.576 1834.63 215.043 1834.01 223.663C1834.01 231.667 1828.47 240.903 1817.38 251.37C1806.29 261.837 1691.64 381.536 1691.64 381.536L1822.69 533.041Z" fill="#111223"/>
<path d="M1948.2 617.044C1935.88 617.044 1926.48 615.084 1920 611.165C1914.16 607.9 1910.27 603.001 1908.32 596.469C1907.03 589.285 1906.38 581.12 1906.38 571.976V185.965C1906.38 176.167 1907.35 168.003 1909.3 161.472C1911.24 154.94 1915.13 150.368 1920.97 147.755C1926.8 144.49 1936.21 142.857 1949.17 142.857C1960.85 142.857 1969.6 144.49 1975.44 147.755C1981.92 150.368 1986.13 154.613 1988.08 160.492C1990.67 165.717 1990.38 171.814 1990.38 178.999L1991.38 185.499C1995.92 177.008 1997.88 175.499 2003.38 169.999C2008.88 164.499 2016.88 159.492 2028.99 153.492C2042.38 147.999 2047.38 145.499 2061.03 141.857C2074.64 137.285 2086.18 135.999 2105.63 135.999C2115.36 135.999 2129.44 136.978 2137.86 138.938C2146.94 140.244 2155.37 142.53 2163.15 145.796C2171.58 149.062 2178.72 152.981 2184.55 157.553C2190.39 161.472 2194.93 166.044 2198.17 171.269C2202.06 175.841 2204 181.393 2204 187.924C2204 202.293 2199.46 214.703 2190.39 225.154C2181.31 234.951 2171.91 239.85 2162.18 239.85C2153.75 239.85 2147.59 238.87 2143.7 236.91C2139.81 234.298 2135.92 231.685 2132.03 229.073C2128.79 226.46 2123.92 224.174 2117.44 222.214C2110.96 219.602 2100.58 218.296 2086.32 218.296C2076.59 218.296 2066.21 220.255 2055.19 224.174C2044.82 228.093 2034.77 233.971 2025.04 241.809C2015.31 248.994 2007.21 258.464 2000.72 270.221C1994.89 281.978 1991.97 295.694 1991.97 311.369V573.936C1991.97 583.08 1991 590.918 1989.05 597.449C1987.11 603.981 1982.89 608.879 1976.41 612.145C1970.57 615.411 1961.17 617.044 1948.2 617.044Z" fill="#111223"/>
<path d="M1991.38 341.499C1991.38 366.628 1971.01 386.999 1945.88 386.999H1938.38C1920.71 386.999 1906.38 372.672 1906.38 354.999L1906.38 167.999C1906.38 150.326 1920.71 135.999 1938.38 135.999L1959.38 135.999C1977.05 135.999 1991.38 150.326 1991.38 167.999L1991.38 341.499Z" fill="#111223"/>
<defs>
<linearGradient id="paint0_linear_3_1313" x1="240.5" y1="286.044" x2="240.5" y2="465.044" gradientUnits="userSpaceOnUse">
<stop stop-color="#8565FE"/>
<stop offset="1" stop-color="#9E84FF"/>
</linearGradient>
</defs>
</svg>
