<svg width="32" height="33" viewBox="0 0 32 33" fill="none" xmlns="http://www.w3.org/2000/svg">
<path d="M21.0078 15.949L18.5778 16.949L21.0078 17.949C21.9022 18.3393 22.6628 18.9828 23.1959 19.8002C23.7289 20.6176 24.0112 21.5731 24.0078 22.549V25.949H22.0078V22.589C22.0081 22.0012 21.8358 21.4263 21.5123 20.9356C21.1887 20.445 20.7281 20.0602 20.1878 19.829L16.0078 18.039L11.8278 19.829C11.2874 20.0602 10.8268 20.445 10.5033 20.9356C10.1797 21.4263 10.0074 22.0012 10.0078 22.589V25.949H8.00777V22.589C7.99652 21.6063 8.27507 20.6422 8.80862 19.8169C9.34218 18.9917 10.1071 18.342 11.0078 17.949L13.4378 16.949L11.0078 15.949C10.1134 15.5586 9.35277 14.9151 8.81969 14.0977C8.28661 13.2803 8.00438 12.3248 8.00777 11.349V7.94897H10.0078V11.309C10.0074 11.8967 10.1797 12.4716 10.5033 12.9623C10.8268 13.453 11.2874 13.8378 11.8278 14.069L16.0078 15.859L20.1878 14.069C20.7281 13.8378 21.1887 13.453 21.5123 12.9623C21.8358 12.4716 22.0081 11.8967 22.0078 11.309V7.94897H24.0078V11.309C24.019 12.2916 23.7405 13.2558 23.2069 14.081C22.6734 14.9062 21.9085 15.556 21.0078 15.949Z" fill="white"/>
<path d="M9.00781 8.94897H23.0078C23.8035 8.94897 24.5665 8.6329 25.1291 8.07029C25.6917 7.50769 26.0078 6.74462 26.0078 5.94897C26.0078 5.15333 25.6917 4.39026 25.1291 3.82765C24.5665 3.26505 23.8035 2.94897 23.0078 2.94897H9.00781C8.21216 2.94897 7.4491 3.26505 6.88649 3.82765C6.32388 4.39026 6.00781 5.15333 6.00781 5.94897C6.00781 6.74462 6.32388 7.50769 6.88649 8.07029C7.4491 8.6329 8.21216 8.94897 9.00781 8.94897ZM9.00781 4.94897H23.0078C23.273 4.94897 23.5274 5.05433 23.7149 5.24187C23.9025 5.4294 24.0078 5.68376 24.0078 5.94897C24.0078 6.21419 23.9025 6.46854 23.7149 6.65608C23.5274 6.84362 23.273 6.94897 23.0078 6.94897H9.00781C8.7426 6.94897 8.48824 6.84362 8.30071 6.65608C8.11317 6.46854 8.00781 6.21419 8.00781 5.94897C8.00781 5.68376 8.11317 5.4294 8.30071 5.24187C8.48824 5.05433 8.7426 4.94897 9.00781 4.94897ZM23.0078 24.949H9.00781C8.21216 24.949 7.4491 25.265 6.88649 25.8277C6.32388 26.3903 6.00781 27.1533 6.00781 27.949C6.00781 28.7446 6.32388 29.5077 6.88649 30.0703C7.4491 30.6329 8.21216 30.949 9.00781 30.949H23.0078C23.8035 30.949 24.5665 30.6329 25.1291 30.0703C25.6917 29.5077 26.0078 28.7446 26.0078 27.949C26.0078 27.1533 25.6917 26.3903 25.1291 25.8277C24.5665 25.265 23.8035 24.949 23.0078 24.949ZM23.0078 28.949H9.00781C8.7426 28.949 8.48824 28.8436 8.30071 28.6561C8.11317 28.4685 8.00781 28.2142 8.00781 27.949C8.00781 27.6838 8.11317 27.4294 8.30071 27.2419C8.48824 27.0543 8.7426 26.949 9.00781 26.949H23.0078C23.273 26.949 23.5274 27.0543 23.7149 27.2419C23.9025 27.4294 24.0078 27.6838 24.0078 27.949C24.0078 28.2142 23.9025 28.4685 23.7149 28.6561C23.5274 28.8436 23.273 28.949 23.0078 28.949Z" fill="white"/>
</svg>
