<svg xmlns="http://www.w3.org/2000/svg" width="32" height="32.011" viewBox="0 0 32 32.011"><defs><style>.a{fill:#a7a6db;}</style></defs><path class="a" d="M59.078,6.039A12.312,12.312,0,0,1,64.5,3.788V0a15.981,15.981,0,0,0-8.1,3.361Z" transform="translate(-50.382)"/><path class="a" d="M3.788,64.5a12.312,12.312,0,0,1,2.251-5.42L3.361,56.4A15.927,15.927,0,0,0,0,64.5Z" transform="translate(0 -50.382)"/><path class="a" d="M245.925,57.211a15.354,15.354,0,0,1,2.8,6.754H246a12.885,12.885,0,0,0-2.006-4.823l1.931-1.931m.053-.811L243.3,59.078a12.312,12.312,0,0,1,2.251,5.42h3.788a16.02,16.02,0,0,0-3.361-8.1Z" transform="translate(-217.339 -50.382)"/><path class="a" d="M168.134.619a15.533,15.533,0,0,1,6.754,2.8l-1.931,1.931a12.885,12.885,0,0,0-4.823-2.006V.619M167.6,0V3.788a12.312,12.312,0,0,1,5.42,2.251l2.689-2.689A16.176,16.176,0,0,0,167.6,0Z" transform="translate(-149.717)"/><path class="a" d="M248.72,168.134a15.532,15.532,0,0,1-2.8,6.754l-1.931-1.931A12.885,12.885,0,0,0,246,168.134h2.721m.619-.534h-3.788a12.312,12.312,0,0,1-2.251,5.42l2.689,2.689a16.176,16.176,0,0,0,3.35-8.109Z" transform="translate(-217.339 -149.717)"/><path class="a" d="M172.956,243.994l1.931,1.931a15.354,15.354,0,0,1-6.754,2.8V246a12.884,12.884,0,0,0,4.823-2.006m.064-.694a12.311,12.311,0,0,1-5.42,2.251v3.788a15.981,15.981,0,0,0,8.1-3.361Z" transform="translate(-149.717 -217.339)"/><path class="a" d="M6.039,173.02a12.311,12.311,0,0,1-2.251-5.42H0a15.981,15.981,0,0,0,3.361,8.1Z" transform="translate(0 -149.717)"/><path class="a" d="M59.053,243.994A12.885,12.885,0,0,0,63.876,246v2.721a15.532,15.532,0,0,1-6.754-2.8l1.931-1.931m-.064-.694L56.3,245.989a16.02,16.02,0,0,0,8.1,3.361v-3.788a12.464,12.464,0,0,1-5.41-2.262Z" transform="translate(-50.293 -217.339)"/></svg>