<svg width="48" height="48" viewBox="0 0 48 48" fill="none" xmlns="http://www.w3.org/2000/svg">
<g clip-path="url(#clip0_3375_1000)">
<path d="M19.1 41.5H8.29999C5.89999 41.5 3.79999 40.3 2.69999 38.2C1.49999 36.1 1.49999 33.7 2.69999 31.7L7.89999 22.9L9.59999 23.9L4.39999 32.7C3.59999 34.1 3.59999 35.8 4.39999 37.2C5.19999 38.6 6.69999 39.5 8.29999 39.5H19.1V41.5ZM34 14.1L28.6 4.90001C27.8 3.50001 26.3 2.70001 24.7 2.70001C23.1 2.70001 21.6 3.50001 20.8 4.90001L15.4 14L13.7 13L19 3.90001C20.2 1.90001 22.3 0.700012 24.6 0.700012C26.9 0.700012 29 1.90001 30.2 3.90001L35.6 13.1L34 14.1ZM41 41.5H30.6V39.5H41C42.6 39.5 44.1 38.7 44.9 37.2C45.7 35.7 45.7 34.1 44.9 32.7L39.4 23.4L41.1 22.4L46.6 31.7C47.8 33.7 47.8 36.2 46.6 38.2C45.5 40.3 43.4 41.5 41 41.5Z" fill="white"/>
<path d="M35.5 47.4L29.4 41.3C29.1 41 29 40.8 29 40.5C29 40.2 29.1 40 29.3 39.8L35.4 33.7L36.8 35.1L31.4 40.5L36.8 45.9L35.5 47.4ZM10.3 31.1L8.4 23.7L1 25.7L0.5 23.8L8.9 21.6C9.2 21.5 9.4 21.6 9.7 21.7C10 21.8 10.1 22.1 10.2 22.3L12.4 30.7L10.3 31.1ZM35.1 15.1H34.8L26.4 12.9L26.9 11L34.3 13L36.2 5.60001L38.1 6.10001L36 14.3C35.9 14.6 35.8 14.8 35.5 14.9C35.4 15 35.2 15.1 35.1 15.1Z" fill="white"/>
<path d="M19.1 41.5H8.29999C5.89999 41.5 3.79999 40.3 2.69999 38.2C1.49999 36.1 1.49999 33.7 2.69999 31.7L7.89999 22.9L9.59999 23.9L4.39999 32.7C3.59999 34.1 3.59999 35.8 4.39999 37.2C5.19999 38.6 6.69999 39.5 8.29999 39.5H19.1V41.5ZM34 14.1L28.6 4.90001C27.8 3.50001 26.3 2.70001 24.7 2.70001C23.1 2.70001 21.6 3.50001 20.8 4.90001L15.4 14L13.7 13L19 3.90001C20.2 1.90001 22.3 0.700012 24.6 0.700012C26.9 0.700012 29 1.90001 30.2 3.90001L35.6 13.1L34 14.1ZM41 41.5H30.6V39.5H41C42.6 39.5 44.1 38.7 44.9 37.2C45.7 35.7 45.7 34.1 44.9 32.7L39.4 23.4L41.1 22.4L46.6 31.7C47.8 33.7 47.8 36.2 46.6 38.2C45.5 40.3 43.4 41.5 41 41.5Z" fill="white"/>
<path d="M35.5 47.4L29.4 41.3C29.1 41 29 40.8 29 40.5C29 40.2 29.1 40 29.3 39.8L35.4 33.7L36.8 35.1L31.4 40.5L36.8 45.9L35.5 47.4ZM10.3 31.1L8.4 23.7L1 25.7L0.5 23.8L8.9 21.6C9.2 21.5 9.4 21.6 9.7 21.7C10 21.8 10.1 22.1 10.2 22.3L12.4 30.7L10.3 31.1ZM35.1 15.1H34.8L26.4 12.9L26.9 11L34.3 13L36.2 5.60001L38.1 6.10001L36 14.3C35.9 14.6 35.8 14.8 35.5 14.9C35.4 15 35.2 15.1 35.1 15.1Z" fill="white"/>
</g>
<defs>
<clipPath id="clip0_3375_1000">
<rect width="48" height="48" fill="white"/>
</clipPath>
</defs>
</svg>
