<svg width="146" height="20" viewBox="0 0 146 20" fill="none" xmlns="http://www.w3.org/2000/svg">
<path d="M20.0905 8.62716H19.6315C19.5662 8.51472 19.4709 8.42263 19.3563 8.36115C19.2418 8.29969 19.1124 8.27123 18.9826 8.27898C18.8857 8.2719 18.7884 8.2867 18.698 8.32231C18.6076 8.35791 18.5263 8.41341 18.4603 8.48469C18.4249 8.52966 18.3931 8.57729 18.3651 8.62716H17.8586C17.6845 8.27898 17.2413 7.58263 16.4341 7.58263C15.6111 7.58263 15.1679 8.27898 15.0096 8.62716H13.9651C13.9037 8.62588 13.8432 8.64236 13.791 8.67459C13.5887 8.82187 13.4345 9.02564 13.3477 9.26028L12.9203 2.37521C12.9115 2.29583 12.8748 2.22211 12.8169 2.16709C12.759 2.11206 12.6835 2.07926 12.6038 2.07446C12.5254 2.07566 12.45 2.1053 12.3918 2.15785C12.3336 2.2104 12.2964 2.28228 12.2872 2.36017L11.7175 9.13438L11.3377 8.70696C11.3076 8.67356 11.271 8.64655 11.2303 8.6275C11.1895 8.60845 11.1454 8.59779 11.1004 8.59611H9.96083C9.80255 8.31041 9.45437 7.88395 8.96372 7.88395C8.42565 7.88395 8.14071 8.31136 8.01404 8.59611H6.47887C6.39491 8.59611 6.3144 8.62946 6.25503 8.68883C6.19566 8.7482 6.16231 8.82871 6.16231 8.91267C6.16231 8.99663 6.19566 9.07714 6.25503 9.13651C6.3144 9.19588 6.39491 9.22923 6.47887 9.22923H8.23575C8.30546 9.23005 8.37334 9.20693 8.42809 9.16373C8.48281 9.12055 8.52107 9.0599 8.5365 8.99191C8.5365 8.99191 8.66316 8.51707 8.96391 8.51707C9.18543 8.51707 9.42294 8.88105 9.48618 9.03933C9.51002 9.09548 9.54979 9.14344 9.60055 9.17729C9.65131 9.21112 9.71087 9.22938 9.77188 9.2298H10.9589L11.7345 10.0844C11.7756 10.1295 11.8285 10.1623 11.8872 10.1791C11.9459 10.1959 12.008 10.1961 12.0668 10.1797C12.1253 10.1626 12.1769 10.1273 12.2139 10.0789C12.2509 10.0305 12.2714 9.97147 12.2725 9.91054L12.5407 6.66533L12.8415 11.4461C12.8504 11.5255 12.887 11.5992 12.9449 11.6542C13.0028 11.7092 13.0783 11.742 13.158 11.7468C13.2365 11.7456 13.3118 11.716 13.37 11.6635C13.4282 11.6109 13.4654 11.539 13.4746 11.4611C13.5536 10.5749 13.807 9.53017 14.0603 9.22942H15.1999C15.2648 9.22927 15.3283 9.20957 15.3819 9.17289C15.4355 9.13621 15.4769 9.08423 15.5006 9.02371C15.5006 9.00791 15.8014 8.18565 16.4187 8.18565C17.036 8.18565 17.3367 8.97705 17.3367 9.00867C17.3586 9.07036 17.3996 9.1235 17.4536 9.16047C17.5077 9.19742 17.572 9.2163 17.6375 9.21437H18.603C18.6469 9.21554 18.6907 9.20769 18.7315 9.19133C18.7723 9.17495 18.8093 9.15038 18.8403 9.11914C18.87 9.09105 18.8926 9.05634 18.9064 9.01785C18.9202 8.97937 18.9246 8.93818 18.9195 8.89762H18.9828C19.078 8.89762 19.078 8.92924 19.078 8.92924C19.0784 8.97063 19.087 9.01152 19.1034 9.04956C19.1197 9.08758 19.1435 9.12198 19.1732 9.15076C19.2011 9.18173 19.2353 9.20628 19.2735 9.22274C19.3118 9.23917 19.3531 9.24712 19.3947 9.24599H20.0753C20.1591 9.24574 20.2395 9.21232 20.2989 9.153C20.3581 9.09369 20.3917 9.01332 20.3918 8.92943C20.3934 8.8894 20.3867 8.84947 20.3722 8.81214C20.3576 8.77483 20.3355 8.74091 20.3071 8.71253C20.2789 8.68417 20.245 8.66194 20.2077 8.64723C20.1705 8.63255 20.1305 8.62571 20.0905 8.62716Z" fill="#EC2233"/>
<path d="M18.3175 2.02827C17.0847 0.79676 15.4335 0.0745737 13.6924 0.00546042C11.9513 -0.0636529 10.248 0.525377 8.92157 1.65531C7.59513 2.78523 6.74278 4.37321 6.5342 6.10316C6.32562 7.83309 6.7761 9.57815 7.79596 10.991L7.49978 11.2871L7.06342 10.8506L0.890897 17.0081C0.592158 17.3144 0.414883 17.7188 0.392059 18.1461C0.39809 18.3785 0.450884 18.6074 0.54729 18.8189C0.643697 19.0305 0.781739 19.2206 0.95318 19.3775C1.10517 19.547 1.28978 19.684 1.49597 19.7803C1.70215 19.8767 1.92566 19.9306 2.15313 19.9386H2.18437C2.60917 19.9118 3.00899 19.7287 3.30661 19.4244L9.47951 13.2515L9.04315 12.8149L9.33933 12.5187C10.679 13.4774 12.314 13.9326 13.9563 13.8043C15.5987 13.676 17.1431 12.9723 18.3176 11.8172C19.613 10.5177 20.3402 8.75759 20.3402 6.92271C20.3402 5.08785 19.6128 3.3278 18.3175 2.02827ZM7.45312 14.4205L2.87044 19.0034L2.85482 19.019C2.67184 19.203 2.42804 19.3139 2.16913 19.3308C1.87033 19.3131 1.59041 19.1788 1.38973 18.9568C1.27473 18.8572 1.18096 18.7355 1.114 18.5989C1.04705 18.4623 1.00829 18.3136 1.00004 18.1617C1.02053 17.8945 1.13036 17.6419 1.31183 17.4446L5.89451 12.8618L7.45312 14.4205ZM9.52618 11.9732L8.3727 10.8195C7.64387 9.87747 7.19364 8.74999 7.07309 7.56499C6.95256 6.38001 7.16654 5.18497 7.69074 4.11541C8.21495 3.04587 9.02843 2.14465 10.0389 1.51398C11.0493 0.883315 12.2163 0.548454 13.4074 0.547384C14.245 0.543024 15.0751 0.706274 15.8487 1.02752C16.6224 1.34877 17.3239 1.82153 17.9121 2.41797C19.0564 3.56181 19.7225 5.09821 19.7753 6.71527C19.8281 8.33235 19.2636 9.90892 18.1964 11.125C17.1292 12.341 15.6392 13.1054 14.029 13.2629C12.4187 13.4204 10.8089 12.9593 9.52618 11.9732ZM8.63764 12.3623L7.95195 11.6921L8.15461 11.4894L8.8403 12.1597L8.63764 12.3623ZM8.6064 13.2665L7.88948 13.9836L6.33087 12.4254L7.0478 11.7083L8.6064 13.2665Z" fill="black"/>
<path d="M17.3682 2.96153C16.5641 2.15942 15.5403 1.61361 14.4262 1.39306C13.312 1.17251 12.1575 1.28712 11.1085 1.72239C10.0595 2.15767 9.16299 2.89408 8.53229 3.83862C7.90159 4.78317 7.56498 5.89343 7.56498 7.02918C7.56498 8.16494 7.90159 9.2752 8.53229 10.2197C9.16299 11.1643 10.0595 11.9007 11.1085 12.336C12.1575 12.7713 13.312 12.8859 14.4262 12.6653C15.5403 12.4448 16.5641 11.8989 17.3682 11.0968C17.9025 10.5628 18.3264 9.92866 18.6157 9.23071C18.9049 8.53277 19.0537 7.78467 19.0537 7.02918C19.0537 6.27368 18.9049 5.5256 18.6157 4.82764C18.3264 4.12971 17.9025 3.49558 17.3682 2.96153ZM18.4919 7.04498C18.4945 8.2457 18.0805 9.41013 17.3206 10.3397C16.5606 11.2693 15.5017 11.9065 14.3245 12.1427C13.1472 12.3789 11.9245 12.1993 10.8648 11.6347C9.8051 11.0702 8.97405 10.1555 8.51338 9.04664C8.05269 7.93783 7.99091 6.70353 8.33853 5.55424C8.68615 4.40496 9.42169 3.41185 10.4197 2.74424C11.4177 2.07665 12.6164 1.77589 13.8113 1.89329C15.0063 2.01069 16.1235 2.53893 16.9726 3.38799C17.4576 3.8649 17.842 4.43429 18.103 5.06245C18.364 5.69062 18.4962 6.36478 18.4919 7.04498Z" fill="black"/>
<path d="M16.4345 3.82619L16.3392 3.73096L15.944 4.12656L16.0393 4.22179C16.759 4.94502 17.1631 5.92382 17.1631 6.94416C17.1631 7.96451 16.759 8.94332 16.0393 9.66653L15.9126 9.7932L15.8494 9.85643L16.245 10.252L16.3082 10.2046C16.3556 10.1572 16.4034 10.1256 16.4507 10.0779C17.2735 9.24461 17.7335 8.11981 17.7305 6.94872C17.7276 5.77764 17.2619 4.65519 16.4349 3.826L16.4345 3.82619Z" fill="black"/>
<path d="M26.8012 15.4692V3.83287H30.733C31.6421 3.83287 32.3883 3.98818 32.9716 4.29878C33.5549 4.6056 33.9868 5.02795 34.2671 5.56583C34.5474 6.10371 34.6875 6.71545 34.6875 7.40106C34.6875 8.08666 34.5474 8.69462 34.2671 9.22492C33.9868 9.75522 33.5568 10.1719 32.9773 10.4749C32.3977 10.7742 31.6572 10.9238 30.7557 10.9238H27.5739V9.65106H30.7102C31.3315 9.65106 31.8315 9.56015 32.2102 9.37833C32.5928 9.19651 32.8693 8.93894 33.0398 8.6056C33.214 8.26848 33.3012 7.86697 33.3012 7.40106C33.3012 6.93515 33.214 6.52795 33.0398 6.17947C32.8655 5.83098 32.5871 5.56204 32.2046 5.37265C31.822 5.17947 31.3163 5.08287 30.6875 5.08287H28.2102V15.4692H26.8012ZM32.2784 10.242L35.1421 15.4692H33.5057L30.6875 10.242H32.2784ZM40.419 15.6511C39.5781 15.6511 38.8528 15.4655 38.2429 15.0942C37.6369 14.7192 37.169 14.1965 36.8395 13.5261C36.5137 12.8518 36.3509 12.0677 36.3509 11.1738C36.3509 10.2798 36.5137 9.49197 36.8395 8.81015C37.169 8.12454 37.6274 7.59045 38.2145 7.20787C38.8054 6.82151 39.4948 6.62833 40.2827 6.62833C40.7372 6.62833 41.1861 6.70409 41.6293 6.8556C42.0725 7.00712 42.4759 7.25333 42.8395 7.59424C43.2031 7.93136 43.4929 8.37833 43.7088 8.93515C43.9247 9.49197 44.0327 10.1776 44.0327 10.992V11.5601H37.3054V10.4011H42.669C42.669 9.90863 42.5706 9.46924 42.3736 9.08287C42.1804 8.69651 41.9039 8.39159 41.544 8.1681C41.188 7.94462 40.7675 7.83287 40.2827 7.83287C39.7486 7.83287 39.2865 7.96545 38.8963 8.2306C38.51 8.49197 38.2126 8.83287 38.0043 9.25333C37.7959 9.67378 37.6918 10.1245 37.6918 10.6056V11.3783C37.6918 12.0374 37.8054 12.5961 38.0327 13.0545C38.2637 13.509 38.5838 13.8556 38.9929 14.0942C39.402 14.3291 39.8774 14.4465 40.419 14.4465C40.7713 14.4465 41.0895 14.3973 41.3736 14.2988C41.6615 14.1965 41.9096 14.045 42.1179 13.8442C42.3262 13.6397 42.4872 13.3859 42.6009 13.0829L43.8963 13.4465C43.76 13.8859 43.5308 14.2723 43.2088 14.6056C42.8869 14.9351 42.4891 15.1927 42.0156 15.3783C41.5422 15.5601 41.01 15.6511 40.419 15.6511ZM48.6406 15.6738C48.0876 15.6738 47.5857 15.5696 47.135 15.3613C46.6842 15.1492 46.3262 14.8442 46.0611 14.4465C45.7959 14.045 45.6634 13.5601 45.6634 12.992C45.6634 12.492 45.7619 12.0867 45.9588 11.7761C46.1558 11.4617 46.419 11.2155 46.7486 11.0374C47.0781 10.8594 47.4418 10.7268 47.8395 10.6397C48.241 10.5488 48.6444 10.4768 49.0497 10.4238C49.58 10.3556 50.01 10.3045 50.3395 10.2704C50.6728 10.2325 50.9153 10.17 51.0668 10.0829C51.2221 9.99575 51.2997 9.84424 51.2997 9.62833V9.58287C51.2997 9.02227 51.1463 8.58666 50.8395 8.27606C50.5365 7.96545 50.0762 7.81015 49.4588 7.81015C48.8187 7.81015 48.3168 7.9503 47.9531 8.2306C47.5895 8.5109 47.3338 8.81015 47.1861 9.12833L45.9134 8.67378C46.1406 8.14348 46.4437 7.7306 46.8225 7.43515C47.205 7.1359 47.6217 6.92757 48.0725 6.81015C48.527 6.68894 48.974 6.62833 49.4134 6.62833C49.6937 6.62833 50.0156 6.66242 50.3793 6.7306C50.7467 6.795 51.1009 6.92946 51.4418 7.13401C51.7865 7.33856 52.0725 7.64727 52.2997 8.06015C52.527 8.47303 52.6406 9.02606 52.6406 9.71924V15.4692H51.2997V14.2874H51.2315C51.1406 14.4768 50.9891 14.6795 50.777 14.8954C50.5649 15.1113 50.2827 15.295 49.9304 15.4465C49.5781 15.598 49.1482 15.6738 48.6406 15.6738ZM48.8452 14.4692C49.3755 14.4692 49.8225 14.3651 50.1861 14.1567C50.5535 13.9484 50.83 13.6795 51.0156 13.3499C51.205 13.0204 51.2997 12.6738 51.2997 12.3101V11.0829C51.2429 11.1511 51.1179 11.2136 50.9247 11.2704C50.7353 11.3234 50.5156 11.3708 50.2656 11.4124C50.0194 11.4503 49.7789 11.4844 49.544 11.5147C49.313 11.5412 49.1255 11.5639 48.9815 11.5829C48.6331 11.6283 48.3073 11.7022 48.0043 11.8045C47.705 11.903 47.4626 12.0526 47.277 12.2533C47.0952 12.4503 47.0043 12.7192 47.0043 13.0601C47.0043 13.5261 47.1766 13.8783 47.5213 14.117C47.8698 14.3518 48.3111 14.4692 48.8452 14.4692ZM58.3835 15.6511C57.6563 15.6511 57.0142 15.4673 56.4574 15.0999C55.9006 14.7287 55.465 14.206 55.1506 13.5317C54.8362 12.8537 54.679 12.0526 54.679 11.1283C54.679 10.2117 54.8362 9.41621 55.1506 8.74197C55.465 8.06772 55.9025 7.54689 56.4631 7.17947C57.0237 6.81204 57.6714 6.62833 58.4063 6.62833C58.9744 6.62833 59.4233 6.72303 59.7529 6.91242C60.0862 7.09803 60.34 7.31015 60.5142 7.54878C60.6922 7.78363 60.8305 7.97681 60.929 8.12833H61.0426V3.83287H62.3835V15.4692H61.0881V14.1283H60.929C60.8305 14.2874 60.6904 14.4882 60.5085 14.7306C60.3267 14.9692 60.0672 15.1833 59.7301 15.3726C59.393 15.5583 58.9441 15.6511 58.3835 15.6511ZM58.5654 14.4465C59.1032 14.4465 59.5578 14.3064 59.929 14.0261C60.3002 13.742 60.5824 13.3499 60.7756 12.8499C60.9688 12.3461 61.0654 11.7647 61.0654 11.1056C61.0654 10.4541 60.9707 9.88401 60.7813 9.39537C60.5919 8.90295 60.3116 8.52037 59.9404 8.24765C59.5691 7.97113 59.1108 7.83287 58.5654 7.83287C57.9972 7.83287 57.5237 7.97871 57.1449 8.27037C56.7699 8.55825 56.4877 8.9503 56.2983 9.44651C56.1127 9.93894 56.0199 10.492 56.0199 11.1056C56.0199 11.7268 56.1146 12.2912 56.304 12.7988C56.4972 13.3026 56.7813 13.7041 57.1563 14.0033C57.5351 14.2988 58.0047 14.4465 58.5654 14.4465ZM65.2074 3.83287H66.8892L70.8438 13.492H70.9801L74.9347 3.83287H76.6165V15.4692H75.2983V6.62833H75.1847L71.5483 15.4692H70.2756L66.6392 6.62833H66.5256V15.4692H65.2074V3.83287ZM80.1236 18.742C79.8963 18.742 79.6937 18.723 79.5156 18.6851C79.3376 18.6511 79.2145 18.617 79.1463 18.5829L79.4872 17.4011C79.813 17.4844 80.1009 17.5147 80.3509 17.492C80.6009 17.4692 80.8225 17.3575 81.0156 17.1567C81.2126 16.9598 81.3925 16.6397 81.5554 16.1965L81.8054 15.5147L78.5781 6.74197H80.0327L82.4418 13.6965H82.5327L84.9418 6.74197H86.3963L82.6918 16.742C82.5251 17.1927 82.3187 17.5658 82.0725 17.8613C81.8262 18.1605 81.5403 18.3821 81.2145 18.5261C80.8925 18.67 80.5289 18.742 80.1236 18.742ZM88.348 15.4692V3.83287H92.2798C93.1889 3.83287 93.9351 3.98818 94.5185 4.29878C95.1018 4.6056 95.5336 5.02795 95.8139 5.56583C96.0942 6.10371 96.2344 6.71545 96.2344 7.40106C96.2344 8.08666 96.0942 8.69462 95.8139 9.22492C95.5336 9.75522 95.1037 10.1719 94.5242 10.4749C93.9446 10.7742 93.2041 10.9238 92.3026 10.9238H89.1208V9.65106H92.2571C92.8783 9.65106 93.3783 9.56015 93.7571 9.37833C94.1397 9.19651 94.4162 8.93894 94.5867 8.6056C94.7609 8.26848 94.848 7.86697 94.848 7.40106C94.848 6.93515 94.7609 6.52795 94.5867 6.17947C94.4124 5.83098 94.134 5.56204 93.7514 5.37265C93.3689 5.17947 92.8632 5.08287 92.2344 5.08287H89.7571V15.4692H88.348ZM93.8253 10.242L96.6889 15.4692H95.0526L92.2344 10.242H93.8253ZM99.7415 10.2192V15.4692H98.4006V3.83287H99.7415V8.1056H99.8551C100.06 7.65484 100.366 7.29689 100.776 7.03174C101.188 6.7628 101.738 6.62833 102.423 6.62833C103.018 6.62833 103.539 6.74765 103.986 6.98628C104.433 7.22113 104.779 7.58287 105.026 8.07151C105.276 8.55636 105.401 9.17378 105.401 9.92378V15.4692H104.06V10.0147C104.06 9.32151 103.88 8.78553 103.52 8.40674C103.164 8.02416 102.67 7.83287 102.037 7.83287C101.598 7.83287 101.204 7.92568 100.855 8.11128C100.51 8.29689 100.238 8.56772 100.037 8.92378C99.84 9.27984 99.7415 9.71166 99.7415 10.2192ZM108.405 18.742C108.178 18.742 107.975 18.723 107.797 18.6851C107.619 18.6511 107.496 18.617 107.428 18.5829L107.768 17.4011C108.094 17.4844 108.382 17.5147 108.632 17.492C108.882 17.4692 109.104 17.3575 109.297 17.1567C109.494 16.9598 109.674 16.6397 109.837 16.1965L110.087 15.5147L106.859 6.74197H108.314L110.723 13.6965H110.814L113.223 6.74197H114.678L110.973 16.742C110.806 17.1927 110.6 17.5658 110.354 17.8613C110.107 18.1605 109.822 18.3821 109.496 18.5261C109.174 18.67 108.81 18.742 108.405 18.742ZM120.243 6.74197V7.87833H115.72V6.74197H120.243ZM117.038 4.65106H118.379V12.9692C118.379 13.348 118.434 13.6321 118.544 13.8215C118.658 14.0071 118.802 14.1321 118.976 14.1965C119.154 14.2571 119.341 14.2874 119.538 14.2874C119.686 14.2874 119.807 14.2798 119.902 14.2647C119.997 14.2458 120.072 14.2306 120.129 14.2192L120.402 15.4238C120.311 15.4579 120.184 15.492 120.021 15.5261C119.858 15.5639 119.652 15.5829 119.402 15.5829C119.023 15.5829 118.652 15.5014 118.288 15.3386C117.929 15.1757 117.629 14.9276 117.391 14.5942C117.156 14.2609 117.038 13.8405 117.038 13.3329V4.65106ZM123.788 10.2192V15.4692H122.447V3.83287H123.788V8.1056H123.902C124.107 7.65484 124.413 7.29689 124.822 7.03174C125.235 6.7628 125.785 6.62833 126.47 6.62833C127.065 6.62833 127.586 6.74765 128.033 6.98628C128.48 7.22113 128.826 7.58287 129.072 8.07151C129.322 8.55636 129.447 9.17378 129.447 9.92378V15.4692H128.107V10.0147C128.107 9.32151 127.927 8.78553 127.567 8.40674C127.211 8.02416 126.716 7.83287 126.084 7.83287C125.644 7.83287 125.25 7.92568 124.902 8.11128C124.557 8.29689 124.285 8.56772 124.084 8.92378C123.887 9.27984 123.788 9.71166 123.788 10.2192ZM131.901 15.4692V6.74197H133.196V8.1056H133.31C133.491 7.63969 133.785 7.27795 134.19 7.02037C134.596 6.75901 135.082 6.62833 135.651 6.62833C136.226 6.62833 136.706 6.75901 137.088 7.02037C137.474 7.27795 137.776 7.63969 137.991 8.1056H138.082C138.306 7.65484 138.641 7.29689 139.088 7.03174C139.535 6.7628 140.071 6.62833 140.696 6.62833C141.476 6.62833 142.115 6.87265 142.611 7.36128C143.107 7.84613 143.355 8.60181 143.355 9.62833V15.4692H142.014V9.62833C142.014 8.98439 141.838 8.52416 141.486 8.24765C141.134 7.97113 140.719 7.83287 140.241 7.83287C139.628 7.83287 139.152 8.01848 138.815 8.38969C138.478 8.75712 138.31 9.22303 138.31 9.78742V15.4692H136.946V9.49197C136.946 8.99575 136.785 8.59613 136.463 8.2931C136.141 7.98628 135.726 7.83287 135.219 7.83287C134.87 7.83287 134.545 7.92568 134.241 8.11128C133.942 8.29689 133.7 8.55447 133.514 8.88401C133.332 9.20977 133.241 9.58666 133.241 10.0147V15.4692H131.901Z" fill="black"/>
</svg>
