<svg width="105" height="105" viewBox="0 0 105 105" fill="none" xmlns="http://www.w3.org/2000/svg">
<g clip-path="url(#clip0_3085_2568)">
<path d="M103.421 45.265H101.011C100.668 44.6747 100.168 44.1912 99.5664 43.8684C98.9648 43.5457 98.2855 43.3963 97.604 43.437C97.0952 43.3998 96.5846 43.4775 96.1099 43.6645C95.6352 43.8514 95.2087 44.1428 94.862 44.517C94.6763 44.7531 94.5092 45.0032 94.362 45.265H91.703C90.789 43.437 88.462 39.781 84.224 39.781C79.903 39.781 77.576 43.437 76.745 45.265H71.261C70.9387 45.2583 70.6213 45.3448 70.347 45.514C69.2853 46.2873 68.4757 47.3571 68.02 48.589L65.776 12.441C65.7294 12.0242 65.5371 11.6372 65.233 11.3483C64.929 11.0594 64.5326 10.8872 64.114 10.862C63.7023 10.8683 63.3069 11.0239 63.0012 11.2998C62.6955 11.5757 62.5004 11.9531 62.452 12.362L59.461 47.928L57.467 45.684C57.3087 45.5086 57.1169 45.3668 56.9029 45.2668C56.6889 45.1668 56.457 45.1108 56.221 45.102H50.238C49.407 43.602 47.579 41.363 45.003 41.363C42.178 41.363 40.682 43.607 40.017 45.102H31.957C31.5162 45.102 31.0935 45.2771 30.7818 45.5888C30.4701 45.9005 30.295 46.3232 30.295 46.764C30.295 47.2048 30.4701 47.6275 30.7818 47.9392C31.0935 48.2509 31.5162 48.426 31.957 48.426H41.181C41.547 48.4303 41.9034 48.3089 42.1908 48.0821C42.4781 47.8554 42.679 47.537 42.76 47.18C42.76 47.18 43.425 44.687 45.004 44.687C46.167 44.687 47.414 46.598 47.746 47.429C47.8712 47.7238 48.08 47.9756 48.3465 48.1533C48.613 48.3309 48.9257 48.4268 49.246 48.429H55.478L59.55 52.916C59.7661 53.1527 60.0436 53.3248 60.3517 53.4131C60.6598 53.5014 60.9863 53.5024 61.295 53.416C61.6022 53.3265 61.8727 53.141 62.067 52.8868C62.2613 52.6326 62.3692 52.3229 62.375 52.003L63.783 34.965L65.362 60.065C65.4086 60.4818 65.6009 60.8688 65.9049 61.1577C66.209 61.4466 66.6053 61.6188 67.024 61.644C67.4357 61.6377 67.8311 61.4821 68.1368 61.2062C68.4424 60.9303 68.6376 60.5529 68.686 60.144C69.101 55.491 70.431 50.006 71.761 48.427H77.744C78.0852 48.4262 78.4182 48.3228 78.6998 48.1302C78.9814 47.9376 79.1986 47.6647 79.323 47.347C79.323 47.264 80.902 42.947 84.143 42.947C87.384 42.947 88.963 47.102 88.963 47.268C89.0781 47.5919 89.293 47.8709 89.5767 48.065C89.8604 48.259 90.1984 48.3581 90.542 48.348H95.611C95.8418 48.3541 96.0714 48.3129 96.2857 48.227C96.5 48.141 96.6944 48.012 96.857 47.848C97.0129 47.7005 97.1318 47.5183 97.2041 47.3162C97.2763 47.1142 97.2999 46.8979 97.273 46.685H97.605C98.105 46.685 98.105 46.851 98.105 46.851C98.1072 47.0683 98.1525 47.283 98.2383 47.4827C98.3242 47.6823 98.4488 47.8629 98.605 48.014C98.7511 48.1766 98.9307 48.3055 99.1315 48.3919C99.3323 48.4782 99.5495 48.5199 99.768 48.514H103.341C103.781 48.5127 104.203 48.3372 104.515 48.0258C104.826 47.7144 105.002 47.2924 105.003 46.852C105.011 46.6418 104.976 46.4322 104.9 46.2362C104.823 46.0403 104.707 45.8622 104.558 45.7132C104.41 45.5643 104.232 45.4476 104.036 45.3704C103.841 45.2933 103.631 45.2574 103.421 45.265Z" fill="#EC2233"/>
<path d="M94.112 10.619C87.64 4.15331 78.9707 0.361681 69.8296 -0.00117783C60.6884 -0.364037 51.7458 2.72849 44.7817 8.66085C37.8176 14.5932 33.3426 22.9304 32.2475 32.013C31.1524 41.0955 33.5175 50.2574 38.872 57.675L37.317 59.23L35.026 56.938L2.619 89.266C1.05056 90.8744 0.119831 92.9977 0 95.241C0.0316597 96.4613 0.30884 97.6626 0.814995 98.7734C1.32115 99.8841 2.0459 100.882 2.946 101.706C3.74399 102.596 4.71324 103.315 5.79574 103.821C6.87824 104.327 8.05174 104.61 9.246 104.652H9.41C11.6403 104.511 13.7394 103.55 15.302 101.952L47.711 69.543L45.42 67.251L46.975 65.696C54.0086 70.7292 62.5926 73.1193 71.2152 72.4456C79.8379 71.7719 87.9464 68.0775 94.113 62.013C100.914 55.19 104.732 45.9493 104.732 36.3158C104.732 26.6824 100.913 17.4418 94.112 10.619ZM37.072 75.681L13.012 99.742L12.93 99.824C11.9693 100.79 10.6893 101.372 9.33 101.461C7.7612 101.368 6.29161 100.663 5.238 99.497C4.63421 98.9743 4.14188 98.3353 3.79036 97.6182C3.43885 96.9011 3.23535 96.1205 3.192 95.323C3.29961 93.9199 3.87621 92.5937 4.829 91.558L28.889 67.497L37.072 75.681ZM47.956 62.832L41.9 56.775C38.0735 51.8289 35.7097 45.9094 35.0768 39.6879C34.444 33.4665 35.5674 27.1923 38.3196 21.5769C41.0718 15.9616 45.3427 11.23 50.6477 7.91886C55.9527 4.60774 62.0795 2.84965 68.333 2.84403C72.731 2.82114 77.0891 3.67824 81.1508 5.36487C85.2126 7.05149 88.8959 9.53357 91.984 12.665C97.9917 18.6704 101.489 26.7368 101.766 35.2267C102.043 43.7167 99.0796 51.994 93.4765 58.3785C87.8733 64.7629 80.0507 68.776 71.5966 69.6031C63.1424 70.4302 54.6903 68.0094 47.956 62.832ZM43.291 64.875L39.691 61.356L40.755 60.292L44.355 63.811L43.291 64.875ZM43.127 69.622L39.363 73.387L31.18 65.206L34.944 61.441L43.127 69.622Z" fill="white"/>
<path d="M89.128 15.519C84.9064 11.3078 79.5314 8.44218 73.682 7.28425C67.8326 6.12632 61.7712 6.728 56.2636 9.01329C50.756 11.2986 46.0492 15.1649 42.7379 20.1239C39.4266 25.083 37.6593 30.9121 37.6593 36.875C37.6593 42.838 39.4266 48.6671 42.7379 53.6261C46.0492 58.5851 50.756 62.4515 56.2636 64.7368C61.7712 67.0221 67.8326 67.6238 73.682 66.4658C79.5314 65.3079 84.9064 62.4423 89.128 58.231C91.9336 55.4271 94.1592 52.0979 95.6777 48.4335C97.1961 44.7692 97.9777 40.8415 97.9777 36.875C97.9777 32.9085 97.1961 28.9809 95.6777 25.3165C94.1592 21.6522 91.9336 18.3229 89.128 15.519ZM95.028 36.958C95.0417 43.262 92.8682 49.3755 88.8782 54.2561C84.8883 59.1367 79.3288 62.4822 73.148 63.722C66.9671 64.9619 60.5476 64.0194 54.984 61.0552C49.4204 58.091 45.0572 53.2887 42.6386 47.4671C40.2199 41.6456 39.8955 35.1653 41.7206 29.1313C43.5457 23.0973 47.4074 17.8833 52.6472 14.3782C57.8869 10.8732 64.1802 9.29419 70.454 9.91052C76.7278 10.5269 82.5935 13.3003 87.051 17.758C89.5976 20.2619 91.6158 23.2513 92.986 26.5493C94.3562 29.8473 95.0506 33.3868 95.028 36.958Z" fill="white"/>
<path d="M84.226 20.059L83.726 19.559L81.651 21.636L82.151 22.136C85.9298 25.9331 88.0513 31.072 88.0513 36.429C88.0513 41.786 85.9298 46.925 82.151 50.722L81.486 51.387L81.154 51.719L83.231 53.796L83.563 53.547C83.812 53.298 84.063 53.132 84.311 52.882C88.6308 48.5068 91.0461 42.6014 91.0306 36.4529C91.015 30.3045 88.5699 24.4114 84.228 20.058L84.226 20.059Z" fill="white"/>
</g>
<defs>
<clipPath id="clip0_3085_2568">
<rect width="105" height="104.652" fill="white"/>
</clipPath>
</defs>
</svg>
