<svg xmlns="http://www.w3.org/2000/svg" width="105" height="104.652" viewBox="0 0 105 104.652"><defs><style>.a{fill:#ec2233;}</style></defs><g transform="translate(-37.8 -0.025)"><path class="a" d="M149.326,47.5h-2.41a3.686,3.686,0,0,0-3.407-1.828,3.4,3.4,0,0,0-2.742,1.08,5.835,5.835,0,0,0-.5.748h-2.659c-.914-1.828-3.241-5.484-7.479-5.484-4.321,0-6.648,3.656-7.479,5.484h-5.484a1.675,1.675,0,0,0-.914.249,6.665,6.665,0,0,0-2.327,3.075l-2.244-36.148a1.78,1.78,0,0,0-1.662-1.579,1.7,1.7,0,0,0-1.662,1.5l-2.991,35.566-1.994-2.244a1.767,1.767,0,0,0-1.246-.582H96.143c-.831-1.5-2.659-3.739-5.235-3.739-2.825,0-4.321,2.244-4.986,3.739h-8.06a1.662,1.662,0,1,0,0,3.324h9.224a1.6,1.6,0,0,0,1.579-1.246s.665-2.493,2.244-2.493c1.163,0,2.41,1.911,2.742,2.742a1.642,1.642,0,0,0,1.5,1h6.232l4.072,4.487a1.731,1.731,0,0,0,1.745.5,1.5,1.5,0,0,0,1.08-1.413L109.688,37.2l1.579,25.1a1.78,1.78,0,0,0,1.662,1.579h0a1.7,1.7,0,0,0,1.662-1.5c.415-4.653,1.745-10.138,3.075-11.717h5.983a1.7,1.7,0,0,0,1.579-1.08c0-.083,1.579-4.4,4.82-4.4s4.82,4.155,4.82,4.321a1.625,1.625,0,0,0,1.579,1.08h5.069a1.691,1.691,0,0,0,1.246-.5,1.365,1.365,0,0,0,.416-1.163h.332c.5,0,.5.166.5.166a1.641,1.641,0,0,0,.5,1.163,1.509,1.509,0,0,0,1.163.5h3.573a1.667,1.667,0,0,0,1.662-1.662A1.528,1.528,0,0,0,149.326,47.5Z" transform="translate(-8.105 -2.21)"/><g transform="translate(37.8 0.025)"><path d="M131.912,10.644A36.4,36.4,0,0,0,76.672,57.7l-1.555,1.555-2.291-2.292L40.419,89.291A9.266,9.266,0,0,0,37.8,95.266a9.087,9.087,0,0,0,2.946,6.465,8.884,8.884,0,0,0,6.3,2.946h.164a9.037,9.037,0,0,0,5.892-2.7L85.511,69.568l-2.291-2.292,1.555-1.555a36.737,36.737,0,0,0,47.138-3.683A36.4,36.4,0,0,0,131.912,10.644ZM74.872,75.706,50.812,99.767l-.082.082a5.594,5.594,0,0,1-3.6,1.637,5.991,5.991,0,0,1-4.092-1.964,5.948,5.948,0,0,1-2.046-4.174,6.269,6.269,0,0,1,1.637-3.765l24.06-24.061ZM85.756,62.857,79.7,56.8A33.458,33.458,0,0,1,106.133,2.869a32.976,32.976,0,0,1,23.651,9.821A33.444,33.444,0,0,1,85.756,62.857ZM81.091,64.9l-3.6-3.519,1.064-1.064,3.6,3.519Zm-.164,4.747-3.764,3.765L68.98,65.231l3.764-3.765Z" transform="translate(-37.8 -0.025)"/><path d="M136.512,16.9a30.165,30.165,0,1,0,0,42.712A30.193,30.193,0,0,0,136.512,16.9Zm5.9,21.439a27.237,27.237,0,1,1-7.977-19.2A26.689,26.689,0,0,1,142.412,38.339Z" transform="translate(-47.384 -1.381)"/><path d="M140.475,24.6l-.5-.5L137.9,26.177l.5.5a20.262,20.262,0,0,1,0,28.586l-.665.665-.332.332,2.077,2.077.332-.249c.249-.249.5-.415.748-.665a23.3,23.3,0,0,0-.083-32.824Z" transform="translate(-56.249 -4.541)"/></g></g></svg>