<svg width="146" height="21" viewBox="0 0 146 21" fill="none" xmlns="http://www.w3.org/2000/svg">
<path d="M20.0905 8.99239H19.6315C19.5662 8.87996 19.4709 8.78787 19.3563 8.72638C19.2418 8.66492 19.1124 8.63646 18.9826 8.64422C18.8857 8.63713 18.7884 8.65193 18.698 8.68755C18.6076 8.72315 18.5263 8.77865 18.4603 8.84992C18.4249 8.89489 18.3931 8.94253 18.3651 8.99239H17.8586C17.6845 8.64422 17.2413 7.94786 16.4341 7.94786C15.6111 7.94786 15.1679 8.64422 15.0096 8.99239H13.9651C13.9037 8.99112 13.8432 9.00759 13.791 9.03982C13.5887 9.18711 13.4345 9.39087 13.3477 9.62551L12.9203 2.74045C12.9115 2.66106 12.8748 2.58735 12.8169 2.53232C12.759 2.4773 12.6835 2.4445 12.6038 2.4397C12.5254 2.4409 12.45 2.47053 12.3918 2.52308C12.3336 2.57563 12.2964 2.64752 12.2872 2.7254L11.7175 9.49961L11.3377 9.0722C11.3076 9.03879 11.271 9.01178 11.2303 8.99274C11.1895 8.97369 11.1454 8.96302 11.1004 8.96135H9.96083C9.80255 8.67564 9.45437 8.24918 8.96372 8.24918C8.42565 8.24918 8.14071 8.6766 8.01404 8.96135H6.47887C6.39491 8.96135 6.3144 8.9947 6.25503 9.05407C6.19566 9.11344 6.16231 9.19395 6.16231 9.27791C6.16231 9.36186 6.19566 9.44238 6.25503 9.50174C6.3144 9.56111 6.39491 9.59446 6.47887 9.59446H8.23575C8.30546 9.59528 8.37334 9.57216 8.42809 9.52896C8.48281 9.48578 8.52107 9.42514 8.5365 9.35714C8.5365 9.35714 8.66316 8.8823 8.96391 8.8823C9.18543 8.8823 9.42294 9.24629 9.48618 9.40457C9.51002 9.46072 9.54979 9.50868 9.60055 9.54252C9.65131 9.57635 9.71087 9.59462 9.77188 9.59504H10.9589L11.7345 10.4497C11.7756 10.4948 11.8285 10.5275 11.8872 10.5444C11.9459 10.5612 12.008 10.5614 12.0668 10.5449C12.1253 10.5279 12.1769 10.4925 12.2139 10.4441C12.2509 10.3957 12.2714 10.3367 12.2725 10.2758L12.5407 7.03057L12.8415 11.8113C12.8504 11.8907 12.887 11.9644 12.9449 12.0195C13.0028 12.0745 13.0783 12.1073 13.158 12.1121C13.2365 12.1109 13.3118 12.0812 13.37 12.0287C13.4282 11.9761 13.4654 11.9043 13.4746 11.8264C13.5536 10.9401 13.807 9.8954 14.0603 9.59465H15.1999C15.2648 9.5945 15.3283 9.57481 15.3819 9.53812C15.4355 9.50144 15.4769 9.44946 15.5006 9.38895C15.5006 9.37314 15.8014 8.55089 16.4187 8.55089C17.036 8.55089 17.3367 9.34228 17.3367 9.3739C17.3586 9.4356 17.3996 9.48874 17.4536 9.52571C17.5077 9.56266 17.572 9.58153 17.6375 9.57961H18.603C18.6469 9.58077 18.6907 9.57292 18.7315 9.55656C18.7723 9.54018 18.8093 9.51561 18.8403 9.48437C18.87 9.45628 18.8926 9.42158 18.9064 9.38308C18.9202 9.34461 18.9246 9.30341 18.9195 9.26286H18.9828C19.078 9.26286 19.078 9.29448 19.078 9.29448C19.0784 9.33587 19.087 9.37676 19.1034 9.4148C19.1197 9.45281 19.1435 9.48721 19.1732 9.51599C19.2011 9.54696 19.2353 9.57151 19.2735 9.58797C19.3118 9.60441 19.3531 9.61235 19.3947 9.61123H20.0753C20.1591 9.61098 20.2395 9.57755 20.2989 9.51824C20.3581 9.45893 20.3917 9.37855 20.3918 9.29467C20.3934 9.25463 20.3867 9.21471 20.3722 9.17738C20.3576 9.14006 20.3355 9.10614 20.3071 9.07776C20.2789 9.0494 20.245 9.02717 20.2077 9.01247C20.1705 8.99778 20.1305 8.99095 20.0905 8.99239Z" fill="#EC2233"/>
<path d="M18.3175 2.39351C17.0847 1.16199 15.4335 0.439808 13.6924 0.370695C11.9513 0.301581 10.248 0.890611 8.92157 2.02054C7.59513 3.15047 6.74278 4.73844 6.5342 6.46839C6.32562 8.19833 6.7761 9.94338 7.79596 11.3562L7.49978 11.6524L7.06342 11.2158L0.890897 17.3733C0.592158 17.6797 0.414883 18.0841 0.392059 18.5114C0.39809 18.7438 0.450884 18.9726 0.54729 19.1842C0.643697 19.3957 0.781739 19.5858 0.95318 19.7427C1.10517 19.9122 1.28978 20.0492 1.49597 20.1456C1.70215 20.242 1.92566 20.2959 2.15313 20.3039H2.18437C2.60917 20.277 3.00899 20.094 3.30661 19.7896L9.47951 13.6167L9.04315 13.1801L9.33933 12.884C10.679 13.8426 12.314 14.2979 13.9563 14.1695C15.5987 14.0412 17.1431 13.3376 18.3176 12.1825C19.613 10.8829 20.3402 9.12282 20.3402 7.28794C20.3402 5.45308 19.6128 3.69304 18.3175 2.39351ZM7.45312 14.7858L2.87044 19.3687L2.85482 19.3843C2.67184 19.5683 2.42804 19.6791 2.16913 19.6961C1.87033 19.6784 1.59041 19.5441 1.38973 19.322C1.27473 19.2224 1.18096 19.1007 1.114 18.9641C1.04705 18.8275 1.00829 18.6789 1.00004 18.527C1.02053 18.2597 1.13036 18.0071 1.31183 17.8099L5.89451 13.227L7.45312 14.7858ZM9.52618 12.3385L8.3727 11.1848C7.64387 10.2427 7.19364 9.11522 7.07309 7.93022C6.95256 6.74524 7.16654 5.5502 7.69074 4.48064C8.21495 3.4111 9.02843 2.50988 10.0389 1.87921C11.0493 1.24855 12.2163 0.913688 13.4074 0.912618C14.245 0.908258 15.0751 1.07151 15.8487 1.39276C16.6224 1.71401 17.3239 2.18677 17.9121 2.78321C19.0564 3.92705 19.7225 5.46344 19.7753 7.0805C19.8281 8.69758 19.2636 10.2742 18.1964 11.4902C17.1292 12.7062 15.6392 13.4706 14.029 13.6281C12.4187 13.7857 10.8089 13.3246 9.52618 12.3385ZM8.63764 12.7276L7.95195 12.0573L8.15461 11.8547L8.8403 12.5249L8.63764 12.7276ZM8.6064 13.6317L7.88948 14.3488L6.33087 12.7906L7.0478 12.0735L8.6064 13.6317Z" fill="white"/>
<path d="M17.3682 3.32676C16.5641 2.52466 15.5403 1.97885 14.4262 1.7583C13.312 1.53775 12.1575 1.65235 11.1085 2.08763C10.0595 2.52291 9.16299 3.25932 8.53229 4.20385C7.90159 5.1484 7.56498 6.25866 7.56498 7.39441C7.56498 8.53018 7.90159 9.64044 8.53229 10.585C9.16299 11.5295 10.0595 12.2659 11.1085 12.7012C12.1575 13.1365 13.312 13.2511 14.4262 13.0305C15.5403 12.81 16.5641 12.2642 17.3682 11.4621C17.9025 10.928 18.3264 10.2939 18.6157 9.59594C18.9049 8.89801 19.0537 8.1499 19.0537 7.39441C19.0537 6.63892 18.9049 5.89083 18.6157 5.19288C18.3264 4.49494 17.9025 3.86082 17.3682 3.32676ZM18.4919 7.41022C18.4945 8.61093 18.0805 9.77536 17.3206 10.705C16.5606 11.6346 15.5017 12.2718 14.3245 12.5079C13.1472 12.7441 11.9245 12.5646 10.8648 12C9.8051 11.4354 8.97405 10.5207 8.51338 9.41187C8.05269 8.30306 7.99091 7.06877 8.33853 5.91948C8.68615 4.77019 9.42169 3.77709 10.4197 3.10947C11.4177 2.44188 12.6164 2.14113 13.8113 2.25852C15.0063 2.37592 16.1235 2.90417 16.9726 3.75322C17.4576 4.23013 17.842 4.79952 18.103 5.42769C18.364 6.05585 18.4962 6.73002 18.4919 7.41022Z" fill="white"/>
<path d="M16.4345 4.19143L16.3392 4.09619L15.944 4.49179L16.0393 4.58703C16.759 5.31026 17.1631 6.28906 17.1631 7.3094C17.1631 8.32974 16.759 9.30856 16.0393 10.0318L15.9126 10.1584L15.8494 10.2217L16.245 10.6173L16.3082 10.5698C16.3556 10.5224 16.4034 10.4908 16.4507 10.4432C17.2735 9.60984 17.7335 8.48505 17.7305 7.31395C17.7276 6.14287 17.2619 5.02042 16.4349 4.19124L16.4345 4.19143Z" fill="white"/>
<path d="M26.8012 15.8345V4.19811H30.733C31.6421 4.19811 32.3883 4.35341 32.9716 4.66402C33.5549 4.97084 33.9868 5.39318 34.2671 5.93106C34.5474 6.46894 34.6875 7.08068 34.6875 7.76629C34.6875 8.4519 34.5474 9.05985 34.2671 9.59015C33.9868 10.1205 33.5568 10.5371 32.9773 10.8402C32.3977 11.1394 31.6572 11.289 30.7557 11.289H27.5739V10.0163H30.7102C31.3315 10.0163 31.8315 9.92538 32.2102 9.74356C32.5928 9.56175 32.8693 9.30417 33.0398 8.97084C33.214 8.63371 33.3012 8.2322 33.3012 7.76629C33.3012 7.30038 33.214 6.89318 33.0398 6.5447C32.8655 6.19621 32.5871 5.92728 32.2046 5.73788C31.822 5.5447 31.3163 5.44811 30.6875 5.44811H28.2102V15.8345H26.8012ZM32.2784 10.6072L35.1421 15.8345H33.5057L30.6875 10.6072H32.2784ZM40.419 16.0163C39.5781 16.0163 38.8528 15.8307 38.2429 15.4595C37.6369 15.0845 37.169 14.5617 36.8395 13.8913C36.5137 13.217 36.3509 12.433 36.3509 11.539C36.3509 10.6451 36.5137 9.8572 36.8395 9.17538C37.169 8.48978 37.6274 7.95568 38.2145 7.57311C38.8054 7.18675 39.4948 6.99356 40.2827 6.99356C40.7372 6.99356 41.1861 7.06932 41.6293 7.22084C42.0725 7.37235 42.4759 7.61856 42.8395 7.95947C43.2031 8.29659 43.4929 8.74356 43.7088 9.30038C43.9247 9.8572 44.0327 10.5428 44.0327 11.3572V11.9254H37.3054V10.7663H42.669C42.669 10.2739 42.5706 9.83447 42.3736 9.44811C42.1804 9.06175 41.9039 8.75682 41.544 8.53334C41.188 8.30985 40.7675 8.19811 40.2827 8.19811C39.7486 8.19811 39.2865 8.33068 38.8963 8.59584C38.51 8.8572 38.2126 9.19811 38.0043 9.61856C37.7959 10.039 37.6918 10.4898 37.6918 10.9708V11.7436C37.6918 12.4027 37.8054 12.9614 38.0327 13.4197C38.2637 13.8742 38.5838 14.2208 38.9929 14.4595C39.402 14.6943 39.8774 14.8117 40.419 14.8117C40.7713 14.8117 41.0895 14.7625 41.3736 14.664C41.6615 14.5617 41.9096 14.4102 42.1179 14.2095C42.3262 14.0049 42.4872 13.7511 42.6009 13.4481L43.8963 13.8117C43.76 14.2511 43.5308 14.6375 43.2088 14.9708C42.8869 15.3004 42.4891 15.558 42.0156 15.7436C41.5422 15.9254 41.01 16.0163 40.419 16.0163ZM48.6406 16.039C48.0876 16.039 47.5857 15.9349 47.135 15.7265C46.6842 15.5144 46.3262 15.2095 46.0611 14.8117C45.7959 14.4102 45.6634 13.9254 45.6634 13.3572C45.6634 12.8572 45.7619 12.4519 45.9588 12.1413C46.1558 11.8269 46.419 11.5807 46.7486 11.4027C47.0781 11.2246 47.4418 11.092 47.8395 11.0049C48.241 10.914 48.6444 10.842 49.0497 10.789C49.58 10.7208 50.01 10.6697 50.3395 10.6356C50.6728 10.5977 50.9153 10.5352 51.0668 10.4481C51.2221 10.361 51.2997 10.2095 51.2997 9.99356V9.94811C51.2997 9.3875 51.1463 8.9519 50.8395 8.64129C50.5365 8.33068 50.0762 8.17538 49.4588 8.17538C48.8187 8.17538 48.3168 8.31553 47.9531 8.59584C47.5895 8.87614 47.3338 9.17538 47.1861 9.49356L45.9134 9.03902C46.1406 8.50871 46.4437 8.09584 46.8225 7.80038C47.205 7.50114 47.6217 7.29281 48.0725 7.17538C48.527 7.05417 48.974 6.99356 49.4134 6.99356C49.6937 6.99356 50.0156 7.02765 50.3793 7.09584C50.7467 7.16023 51.1009 7.2947 51.4418 7.49924C51.7865 7.70379 52.0725 8.0125 52.2997 8.42538C52.527 8.83826 52.6406 9.39129 52.6406 10.0845V15.8345H51.2997V14.6527H51.2315C51.1406 14.842 50.9891 15.0447 50.777 15.2606C50.5649 15.4765 50.2827 15.6602 49.9304 15.8117C49.5781 15.9633 49.1482 16.039 48.6406 16.039ZM48.8452 14.8345C49.3755 14.8345 49.8225 14.7303 50.1861 14.522C50.5535 14.3136 50.83 14.0447 51.0156 13.7152C51.205 13.3856 51.2997 13.039 51.2997 12.6754V11.4481C51.2429 11.5163 51.1179 11.5788 50.9247 11.6356C50.7353 11.6886 50.5156 11.736 50.2656 11.7777C50.0194 11.8155 49.7789 11.8496 49.544 11.8799C49.313 11.9064 49.1255 11.9292 48.9815 11.9481C48.6331 11.9936 48.3073 12.0674 48.0043 12.1697C47.705 12.2682 47.4626 12.4178 47.277 12.6186C47.0952 12.8155 47.0043 13.0845 47.0043 13.4254C47.0043 13.8913 47.1766 14.2436 47.5213 14.4822C47.8698 14.717 48.3111 14.8345 48.8452 14.8345ZM58.3835 16.0163C57.6563 16.0163 57.0142 15.8326 56.4574 15.4652C55.9006 15.0939 55.465 14.5712 55.1506 13.897C54.8362 13.2189 54.679 12.4178 54.679 11.4936C54.679 10.5769 54.8362 9.78144 55.1506 9.1072C55.465 8.43296 55.9025 7.91212 56.4631 7.5447C57.0237 7.17728 57.6714 6.99356 58.4063 6.99356C58.9744 6.99356 59.4233 7.08826 59.7529 7.27765C60.0862 7.46326 60.34 7.67538 60.5142 7.91402C60.6922 8.14887 60.8305 8.34205 60.929 8.49356H61.0426V4.19811H62.3835V15.8345H61.0881V14.4936H60.929C60.8305 14.6527 60.6904 14.8534 60.5085 15.0958C60.3267 15.3345 60.0672 15.5485 59.7301 15.7379C59.393 15.9235 58.9441 16.0163 58.3835 16.0163ZM58.5654 14.8117C59.1032 14.8117 59.5578 14.6716 59.929 14.3913C60.3002 14.1072 60.5824 13.7152 60.7756 13.2152C60.9688 12.7114 61.0654 12.1299 61.0654 11.4708C61.0654 10.8193 60.9707 10.2492 60.7813 9.76061C60.5919 9.26818 60.3116 8.88561 59.9404 8.61288C59.5691 8.33637 59.1108 8.19811 58.5654 8.19811C57.9972 8.19811 57.5237 8.34394 57.1449 8.63561C56.7699 8.92349 56.4877 9.31553 56.2983 9.81175C56.1127 10.3042 56.0199 10.8572 56.0199 11.4708C56.0199 12.092 56.1146 12.6564 56.304 13.164C56.4972 13.6678 56.7813 14.0693 57.1563 14.3686C57.5351 14.664 58.0047 14.8117 58.5654 14.8117ZM65.2074 4.19811H66.8892L70.8438 13.8572H70.9801L74.9347 4.19811H76.6165V15.8345H75.2983V6.99356H75.1847L71.5483 15.8345H70.2756L66.6392 6.99356H66.5256V15.8345H65.2074V4.19811ZM80.1236 19.1072C79.8963 19.1072 79.6937 19.0883 79.5156 19.0504C79.3376 19.0163 79.2145 18.9822 79.1463 18.9481L79.4872 17.7663C79.813 17.8496 80.1009 17.8799 80.3509 17.8572C80.6009 17.8345 80.8225 17.7227 81.0156 17.522C81.2126 17.325 81.3925 17.0049 81.5554 16.5617L81.8054 15.8799L78.5781 7.1072H80.0327L82.4418 14.0617H82.5327L84.9418 7.1072H86.3963L82.6918 17.1072C82.5251 17.558 82.3187 17.9311 82.0725 18.2265C81.8262 18.5258 81.5403 18.7474 81.2145 18.8913C80.8925 19.0352 80.5289 19.1072 80.1236 19.1072ZM88.348 15.8345V4.19811H92.2798C93.1889 4.19811 93.9351 4.35341 94.5185 4.66402C95.1018 4.97084 95.5336 5.39318 95.8139 5.93106C96.0942 6.46894 96.2344 7.08068 96.2344 7.76629C96.2344 8.4519 96.0942 9.05985 95.8139 9.59015C95.5336 10.1205 95.1037 10.5371 94.5242 10.8402C93.9446 11.1394 93.2041 11.289 92.3026 11.289H89.1208V10.0163H92.2571C92.8783 10.0163 93.3783 9.92538 93.7571 9.74356C94.1397 9.56175 94.4162 9.30417 94.5867 8.97084C94.7609 8.63371 94.848 8.2322 94.848 7.76629C94.848 7.30038 94.7609 6.89318 94.5867 6.5447C94.4124 6.19621 94.134 5.92728 93.7514 5.73788C93.3689 5.5447 92.8632 5.44811 92.2344 5.44811H89.7571V15.8345H88.348ZM93.8253 10.6072L96.6889 15.8345H95.0526L92.2344 10.6072H93.8253ZM99.7415 10.5845V15.8345H98.4006V4.19811H99.7415V8.47084H99.8551C100.06 8.02008 100.366 7.66212 100.776 7.39697C101.188 7.12803 101.738 6.99356 102.423 6.99356C103.018 6.99356 103.539 7.11288 103.986 7.35152C104.433 7.58637 104.779 7.94811 105.026 8.43675C105.276 8.92159 105.401 9.53902 105.401 10.289V15.8345H104.06V10.3799C104.06 9.68675 103.88 9.15076 103.52 8.77197C103.164 8.3894 102.67 8.19811 102.037 8.19811C101.598 8.19811 101.204 8.29091 100.855 8.47652C100.51 8.66212 100.238 8.93296 100.037 9.28902C99.84 9.64508 99.7415 10.0769 99.7415 10.5845ZM108.405 19.1072C108.178 19.1072 107.975 19.0883 107.797 19.0504C107.619 19.0163 107.496 18.9822 107.428 18.9481L107.768 17.7663C108.094 17.8496 108.382 17.8799 108.632 17.8572C108.882 17.8345 109.104 17.7227 109.297 17.522C109.494 17.325 109.674 17.0049 109.837 16.5617L110.087 15.8799L106.859 7.1072H108.314L110.723 14.0617H110.814L113.223 7.1072H114.678L110.973 17.1072C110.806 17.558 110.6 17.9311 110.354 18.2265C110.107 18.5258 109.822 18.7474 109.496 18.8913C109.174 19.0352 108.81 19.1072 108.405 19.1072ZM120.243 7.1072V8.24356H115.72V7.1072H120.243ZM117.038 5.01629H118.379V13.3345C118.379 13.7133 118.434 13.9974 118.544 14.1867C118.658 14.3724 118.802 14.4974 118.976 14.5617C119.154 14.6224 119.341 14.6527 119.538 14.6527C119.686 14.6527 119.807 14.6451 119.902 14.6299C119.997 14.611 120.072 14.5958 120.129 14.5845L120.402 15.789C120.311 15.8231 120.184 15.8572 120.021 15.8913C119.858 15.9292 119.652 15.9481 119.402 15.9481C119.023 15.9481 118.652 15.8667 118.288 15.7038C117.929 15.5409 117.629 15.2928 117.391 14.9595C117.156 14.6261 117.038 14.2057 117.038 13.6981V5.01629ZM123.788 10.5845V15.8345H122.447V4.19811H123.788V8.47084H123.902C124.107 8.02008 124.413 7.66212 124.822 7.39697C125.235 7.12803 125.785 6.99356 126.47 6.99356C127.065 6.99356 127.586 7.11288 128.033 7.35152C128.48 7.58637 128.826 7.94811 129.072 8.43675C129.322 8.92159 129.447 9.53902 129.447 10.289V15.8345H128.107V10.3799C128.107 9.68675 127.927 9.15076 127.567 8.77197C127.211 8.3894 126.716 8.19811 126.084 8.19811C125.644 8.19811 125.25 8.29091 124.902 8.47652C124.557 8.66212 124.285 8.93296 124.084 9.28902C123.887 9.64508 123.788 10.0769 123.788 10.5845ZM131.901 15.8345V7.1072H133.196V8.47084H133.31C133.491 8.00493 133.785 7.64318 134.19 7.38561C134.596 7.12425 135.082 6.99356 135.651 6.99356C136.226 6.99356 136.706 7.12425 137.088 7.38561C137.474 7.64318 137.776 8.00493 137.991 8.47084H138.082C138.306 8.02008 138.641 7.66212 139.088 7.39697C139.535 7.12803 140.071 6.99356 140.696 6.99356C141.476 6.99356 142.115 7.23788 142.611 7.72652C143.107 8.21137 143.355 8.96705 143.355 9.99356V15.8345H142.014V9.99356C142.014 9.34962 141.838 8.8894 141.486 8.61288C141.134 8.33637 140.719 8.19811 140.241 8.19811C139.628 8.19811 139.152 8.38371 138.815 8.75493C138.478 9.12235 138.31 9.58826 138.31 10.1527V15.8345H136.946V9.8572C136.946 9.36099 136.785 8.96137 136.463 8.65834C136.141 8.35152 135.726 8.19811 135.219 8.19811C134.87 8.19811 134.545 8.29091 134.241 8.47652C133.942 8.66212 133.7 8.9197 133.514 9.24925C133.332 9.575 133.241 9.9519 133.241 10.3799V15.8345H131.901Z" fill="white"/>
</svg>
